<?xml version="1.0" encoding="UTF-8"?>
<svg version="1.1" xmlns="http://www.w3.org/2000/svg" width="625" height="625">
<path d="M0 0 C2.23310437 0.01861127 4.46579965 0.02050643 6.69897461 0.02026367 C17.56465726 0.05752247 17.56465726 0.05752247 21.00952148 1.20581055 C21.00952148 1.86581055 21.00952148 2.52581055 21.00952148 3.20581055 C19.53515625 4.51171875 19.53515625 4.51171875 17.45092773 6.0065918 C16.68143799 6.56467529 15.91194824 7.12275879 15.11914062 7.69775391 C14.27859131 8.2985376 13.43804199 8.89932129 12.57202148 9.51831055 C10.8106525 10.79564422 9.05025385 12.07431688 7.29077148 13.35424805 C5.9546582 14.32442871 5.9546582 14.32442871 4.59155273 15.31420898 C0.87605261 18.03619224 -2.7798786 20.83196292 -6.42797852 23.64331055 C-12.72308656 28.48707964 -19.06416311 33.26519958 -25.42797852 38.01831055 C-34.33894083 44.67660816 -34.33894083 44.67660816 -43.03735352 51.6081543 C-44.26904775 52.61568018 -45.52727569 53.59235039 -46.81860352 54.5222168 C-57.93875952 62.9124246 -64.94010729 78.76674372 -66.99047852 92.20581055 C-68.30799069 112.35726721 -63.75410984 128.98793693 -50.48266602 144.62768555 C-39.20149209 156.29786547 -23.42043187 163.38200034 -7.21704102 164.23706055 C15.25183777 164.01944429 30.66978256 154.30350101 47.85253906 140.78686523 C55.79837372 134.54233866 63.93256665 128.56383848 72.09692383 122.609375 C73.38098403 121.66706429 74.63353112 120.680382 75.85187244 119.65451431 C78.26869158 118.03179675 79.56862842 117.77379094 82.44450378 117.62298584 C83.32786911 117.57117157 84.21123444 117.5193573 85.12136841 117.4659729 C86.08372406 117.42491425 87.04607971 117.38385559 88.03759766 117.34155273 C89.05806686 117.28810699 90.07853607 117.23466125 91.12992859 117.17959595 C100.6321717 116.7125133 110.14371524 116.45265183 119.65490246 116.24961472 C126.0259658 116.11215322 132.38005545 115.91301327 138.74267578 115.55151367 C183.87052323 113.04875658 183.87052323 113.04875658 198.78149414 125.60620117 C206.16898002 132.28071681 212.54507629 139.85748002 218.4276886 147.87164307 C220.37230906 150.50883656 222.31573903 152.31038062 225.00952148 154.20581055 C225.00952148 154.86581055 225.00952148 155.52581055 225.00952148 156.20581055 C225.66952148 156.20581055 226.32952148 156.20581055 227.00952148 156.20581055 C228.70999952 157.97522688 230.21757902 159.87024479 231.76733398 161.7722168 C233.66772387 163.83483508 235.56633734 165.59037954 237.69050598 167.40882874 C241.73393861 170.9249109 245.56471024 174.60662271 249.35595703 178.39111328 C250.04159729 179.07178864 250.72723755 179.75246399 251.43365479 180.45376587 C253.67392665 182.67957395 255.91041418 184.90913095 258.14624023 187.1394043 C258.91597483 187.90631151 259.68570942 188.67321873 260.4787693 189.46336555 C264.54616856 193.51584233 268.6107355 197.57113394 272.67285156 201.62890625 C276.85556029 205.80611704 281.04747722 209.97395788 285.24161053 214.13969326 C288.48008531 217.35950887 291.71179825 220.58604741 294.94172096 223.81443977 C296.48412311 225.35382617 298.02901306 226.89072426 299.57648277 228.4250164 C301.74192965 230.57332221 303.89761844 232.73099103 306.05126953 234.89111328 C306.68462723 235.5152562 307.31798492 236.13939911 307.97053528 236.78245544 C316.38274832 245.27370941 320.9199409 254.51066525 321.44702148 266.58081055 C321.04183307 278.39880597 316.68694712 287.8962092 308.16577148 295.94799805 C299.51313318 303.07578616 289.81638941 305.06215537 278.82592773 304.59643555 C259.19708697 302.58734233 244.79588457 283.11418595 231.75585938 269.91552734 C231.01320076 269.16641838 231.01320076 269.16641838 230.25553894 268.4021759 C228.88760257 267.02204586 227.52245642 265.6391519 226.1574707 264.25610352 C222.65757691 260.91533197 220.02630541 260.81253003 215.33764648 260.8503418 C211.38182467 261.45433472 209.70293725 263.3103886 207.00952148 266.20581055 C205.80308582 269.82511753 205.6868359 272.3981206 206.00952148 276.20581055 C209.17166663 281.91594175 213.74544855 286.14915666 218.38842773 290.67456055 C220.04804839 292.31376659 221.70755 293.95309316 223.36694336 295.5925293 C225.97374444 298.15579762 228.58297253 300.71653631 231.19482422 303.2746582 C233.72415261 305.75566154 236.24416718 308.24584082 238.76342773 310.73706055 C239.54472549 311.49660034 240.32602325 312.25614014 241.1309967 313.03869629 C247.66827636 319.51594279 250.83535706 325.14668657 251.32202148 334.39331055 C251.20602507 342.13929348 247.95471336 349.09414043 242.72436523 354.73706055 C235.46171193 360.9574652 227.23068462 361.80642271 218.00952148 361.20581055 C212.38269347 360.30273938 209.16018313 357.56789873 205.07202148 353.70581055 C200.8058954 349.70140999 197.00126112 346.67269935 191.00952148 346.20581055 C187.01320983 346.99731305 183.47908303 348.91306182 181.00952148 352.20581055 C179.80308582 355.82511753 179.6868359 358.3981206 180.00952148 362.20581055 C182.06093262 366.22315735 184.73455135 368.88718124 188.00952148 371.89331055 C193.46901375 377.21020414 195.54571741 383.36286254 196.44702148 390.83081055 C195.30445588 399.64488809 192.13017477 406.89137203 185.13452148 412.51831055 C178.1681081 416.28017377 171.26680828 417.38156159 163.56420898 415.65893555 C156.92933471 413.45424378 152.89537748 409.5625971 148.23608398 404.44799805 C145.07809467 401.26784741 143.07244165 400.32391279 138.63452148 399.83081055 C134.31655541 400.27749669 132.31625601 401.43738164 129.00952148 404.20581055 C126.42307684 407.61521485 126.64449033 411.04445544 127.00952148 415.20581055 C128.49715102 418.70611533 130.65601446 420.84313732 133.38452148 423.39331055 C139.51824409 429.46191932 142.28662039 435.545894 142.63452148 444.20581055 C142.34719674 451.54057287 140.46631246 457.27418565 135.58764648 462.82299805 C128.79278395 468.99682476 122.24508308 469.78533758 113.37280273 469.54174805 C101.3694597 468.34280786 93.15935656 457.43669593 85.15795898 449.32299805 C82.56299318 446.7657772 79.83144338 444.40890036 77.06420898 442.04174805 C73.8621033 439.18055095 70.88576372 436.10299333 67.89233398 433.02612305 C66.1319881 431.14197157 66.1319881 431.14197157 64.00952148 430.20581055 C64.00952148 429.54581055 64.00952148 428.88581055 64.00952148 428.20581055 C63.34952148 428.20581055 62.68952148 428.20581055 62.00952148 428.20581055 C63.3542808 425.17814809 64.81557993 423.20137928 67.23999023 420.95581055 C67.87517578 420.35349609 68.51036133 419.75118164 69.16479492 419.13061523 C69.83542969 418.49542969 70.50606445 417.86024414 71.19702148 417.20581055 C82.49252832 406.17809666 88.91871722 394.92758124 89.44702148 378.83081055 C89.13528033 365.48015664 84.38171213 353.75658018 75.32202148 343.95581055 C64.86645303 334.09770315 51.78275618 331.21736544 38.00952148 329.20581055 C37.95795898 328.23643555 37.90639648 327.26706055 37.85327148 326.26831055 C36.84275677 312.93354497 32.42245225 299.92803684 22.13842773 290.8112793 C11.03923872 282.4410652 0.66699431 279.85714083 -12.99047852 278.20581055 C-13.12583008 277.14104492 -13.26118164 276.0762793 -13.40063477 274.97924805 C-15.36158579 261.20312835 -19.55655708 247.43965702 -31.08422852 238.6003418 C-42.2269907 230.87291254 -51.93755976 227.84959277 -65.49047852 228.08081055 C-66.50368164 228.08983398 -67.51688477 228.09885742 -68.56079102 228.1081543 C-71.03760652 228.13152048 -73.51391231 228.16427886 -75.99047852 228.20581055 C-76.20961914 227.38338867 -76.42875977 226.5609668 -76.65454102 225.71362305 C-78.58736191 218.90946495 -80.83539145 213.15103184 -84.72094727 207.22924805 C-85.99047852 205.20581055 -85.99047852 205.20581055 -86.99047852 202.20581055 C-87.65047852 202.20581055 -88.31047852 202.20581055 -88.99047852 202.20581055 C-90.14538826 201.01693287 -91.29977759 199.82754484 -92.45141602 198.63549805 C-102.44629523 189.35091482 -114.75923487 186.77721379 -127.92016602 186.99487305 C-137.98518922 187.37178792 -146.24825568 191.49141813 -154.99047852 196.20581055 C-158.71835379 184.48963112 -159.3627798 172.78111239 -159.30297852 160.58081055 C-159.30148804 159.82980072 -159.29999756 159.07879089 -159.29846191 158.30502319 C-159.25816007 147.01163383 -158.6525288 136.21125654 -155.99047852 125.20581055 C-155.72364258 123.98506836 -155.45680664 122.76432617 -155.18188477 121.5065918 C-148.47251301 93.44650815 -134.15069036 69.36079753 -114.36401367 48.64672852 C-113.02386032 47.24082999 -111.70028372 45.81918863 -110.37719727 44.3972168 C-82.15854204 14.92439912 -40.34663943 -0.3485573 0 0 Z " fill="#CADCAE" transform="translate(250.990478515625,78.794189453125)"/>
<path d="M0 0 C1.26996323 0.00371613 1.26996323 0.00371613 2.56558228 0.00750732 C3.45700928 0.00239639 4.34843628 -0.00271454 5.26687622 -0.00798035 C8.2309329 -0.02194 11.19475822 -0.02091258 14.15884399 -0.01861572 C16.22515957 -0.0225037 18.29147434 -0.02683858 20.35778809 -0.03160095 C24.70409726 -0.0390801 29.05032528 -0.03876295 33.39663696 -0.0335083 C38.92616313 -0.02775972 44.45534929 -0.04452367 49.98481941 -0.06785297 C54.26265358 -0.08271165 58.5404086 -0.08344484 62.81826401 -0.08034325 C64.85370422 -0.080852 66.8891494 -0.08600452 68.92456436 -0.09615517 C108.04373138 -0.26705301 141.56517759 14.70859092 169.65103149 41.65716553 C183.33555446 55.79118012 193.48198352 72.75761516 199.96353149 91.28216553 C200.53007446 92.87931396 200.53007446 92.87931396 201.10806274 94.50872803 C208.59868003 117.12085361 210.92831199 146.18337518 203.96353149 169.28216553 C203.30353149 169.94216553 202.64353149 170.60216553 201.96353149 171.28216553 C198.35419546 168.49782058 195.16524952 165.52230861 191.96353149 162.28216553 C190.59594444 160.91124756 190.59594444 160.91124756 189.20072937 159.51263428 C188.18943265 158.49833177 187.17815755 157.48400771 186.16690063 156.46966553 C180.50576526 150.79219853 174.84209183 145.11727053 169.17696476 139.44378662 C165.75724281 136.01883877 162.33846595 132.59295821 158.92178345 129.16497803 C155.60494786 125.83724997 152.28565066 122.51199549 148.96465874 119.18841553 C147.70436574 117.92628254 146.44494952 116.66327339 145.18644905 115.39935303 C143.42316052 113.62876738 141.65672816 111.86137479 139.88955688 110.09466553 C139.37664093 109.5781543 138.86372498 109.06164307 138.33526611 108.52947998 C135.89148461 106.09256777 133.41267753 103.78587646 130.74159241 101.59857178 C128.2600016 99.5293686 126.3853701 97.3949399 124.36587524 94.89154053 C119.04484093 88.78494961 112.42367966 83.01123513 104.16479492 81.90846252 C100.82303316 81.76295206 97.50178454 81.74170553 94.15689087 81.7645874 C92.89085526 81.75757813 91.62481964 81.75056885 90.32041931 81.74334717 C86.8678288 81.7252074 83.41571968 81.73214204 79.96312141 81.74486351 C76.33804214 81.75504007 72.71300216 81.74558498 69.08792114 81.73931885 C63.0019496 81.73205591 56.91617266 81.74159438 50.83023071 81.76068115 C43.80912412 81.78244748 36.78848225 81.77539514 29.76738691 81.75337553 C23.72294898 81.73518272 17.67865038 81.73268207 11.6341939 81.74313021 C8.03122377 81.74934393 4.42847159 81.75025973 0.82551575 81.73698425 C-3.19320891 81.72320928 -7.21114122 81.74233835 -11.22982788 81.7645874 C-12.41344406 81.75649048 -13.59706024 81.74839355 -14.81654358 81.74005127 C-23.50720158 81.82902774 -29.16370496 83.75035697 -36.07943726 89.16497803 C-36.75369751 89.68712891 -37.42795776 90.20927979 -38.12265015 90.74725342 C-38.81608521 91.29502441 -39.50952026 91.84279541 -40.22396851 92.40716553 C-40.96445435 92.98265137 -41.70494019 93.55813721 -42.46786499 94.15106201 C-43.96453308 95.31459919 -45.45912172 96.48081667 -46.95150757 97.64984131 C-49.82204486 99.89719638 -52.70948744 102.12171064 -55.59896851 104.34466553 C-56.62248413 105.13228271 -57.64599976 105.9198999 -58.70053101 106.73138428 C-62.609686 109.7269738 -66.53884942 112.69579569 -70.47396851 115.65716553 C-71.1366272 116.15740234 -71.79928589 116.65763916 -72.48202515 117.17303467 C-83.0097792 125.0738558 -90.58758192 128.48378426 -104.03646851 127.28216553 C-110.74529973 125.58617299 -115.18806715 120.84096748 -119.03646851 115.28216553 C-122.23724392 109.62973234 -122.92899648 103.67861603 -122.03646851 97.28216553 C-119.17472961 87.72765018 -113.00518338 81.91679026 -105.22396851 76.15716553 C-104.47985718 75.59730957 -103.73574585 75.03745361 -102.96908569 74.46063232 C-100.66314923 72.72777027 -98.35024512 71.00453945 -96.03646851 69.28216553 C-94.63102414 68.22944257 -93.22605871 67.17607984 -91.82162476 66.12200928 C-89.80408455 64.6080052 -87.78621164 63.09447336 -85.76644897 61.58343506 C-80.71084297 57.79950746 -75.69985617 53.96051804 -70.70053101 50.10247803 C-56.14356009 38.8813076 -41.48049516 27.79811801 -26.73568726 16.82513428 C-4.2301138 0.03889334 -4.2301138 0.03889334 0 0 Z " fill="#CADCAE" transform="translate(343.0364685058594,77.71783447265625)"/>
<path d="M0 0 C6.22111234 3.78328887 10.38820318 9.51549931 12.5 16.4375 C13.60016715 24.6004686 11.85339542 31.00447483 6.8984375 37.5546875 C4.52939104 40.28239438 2.03014704 42.86112347 -0.5 45.4375 C-1.20769531 46.16952637 -1.91539062 46.90155273 -2.64453125 47.65576172 C-5.1060233 50.19832992 -7.58187224 52.72610409 -10.0625 55.25 C-10.8656665 56.07483887 -11.66883301 56.89967773 -12.49633789 57.74951172 C-19.47452288 64.76416432 -25.87102777 70.4982875 -36.125 70.75 C-43.12217791 70.65715445 -48.27755799 69.33893246 -53.5390625 64.6015625 C-59.40253401 58.30375976 -60.68325799 52.95570022 -60.9609375 44.51171875 C-59.74948925 36.43197489 -55.53464849 30.71930812 -49.828125 25.13671875 C-49.18687683 24.49305862 -48.54562866 23.8493985 -47.88494873 23.18623352 C-46.53611634 21.83837392 -45.18113166 20.49664521 -43.8203125 19.16088867 C-41.75350508 17.1284468 -39.71183562 15.07302096 -37.671875 13.01367188 C-36.35038742 11.69908269 -35.02751563 10.3858832 -33.703125 9.07421875 C-33.10075012 8.466884 -32.49837524 7.85954926 -31.87774658 7.23381042 C-23.19508312 -1.21465137 -11.77500385 -5.23081902 0 0 Z " fill="#CADCAD" transform="translate(303.5,435.5625)"/>
<path d="M0 0 C5.68993634 3.40508861 9.91673419 8.93770257 12.00390625 15.19921875 C12.20079232 17.04713512 12.31594664 18.90441018 12.37890625 20.76171875 C12.42789063 21.73238281 12.476875 22.70304687 12.52734375 23.703125 C10.99800013 33.91777085 4.38572411 40.49944315 -2.80859375 47.38671875 C-3.67291016 48.23685547 -4.53722656 49.08699219 -5.42773438 49.96289062 C-25.35059644 69.43466902 -25.35059644 69.43466902 -36.74609375 70.57421875 C-44.385842 70.29720498 -50.32019301 67.3845614 -55.49609375 61.82421875 C-60.52654464 55.59700736 -61.82624788 50.06117662 -60.99609375 42.19921875 C-59.12766398 32.16540273 -51.29447317 25.65443145 -44.31640625 18.84716797 C-42.24750058 16.8255934 -40.20668949 14.77852806 -38.16796875 12.7265625 C-36.84662971 11.41637578 -35.52376275 10.1077278 -34.19921875 8.80078125 C-33.59684387 8.19658356 -32.99446899 7.59238586 -32.37384033 6.96987915 C-23.13190043 -1.97196483 -12.01916253 -5.95732404 0 0 Z " fill="#C9DBAD" transform="translate(251.99609375,384.80078125)"/>
<path d="M0 0 C2.75583203 1.57925534 4.65553759 3.58250219 6.7109375 5.98046875 C7.79375 7.00140625 7.79375 7.00140625 8.8984375 8.04296875 C12.29787331 13.5523992 13.46852732 20.77735924 12.2109375 27.16796875 C9.27440214 35.6342369 3.0172245 42.11384452 -3.2890625 48.23046875 C-3.97484375 48.91109375 -4.660625 49.59171875 -5.3671875 50.29296875 C-9.19663009 54.06394656 -13.13354704 57.57550895 -17.2890625 60.98046875 C-18.1346875 61.84671875 -18.9803125 62.71296875 -19.8515625 63.60546875 C-26.12210049 69.71522372 -31.86983223 70.28138583 -40.3125 70.19921875 C-46.32078527 69.75766498 -51.02192142 67.24760983 -55.2890625 62.98046875 C-59.58085943 56.84586636 -61.87619732 51.1935143 -61.03125 43.69140625 C-59.4920302 35.32364769 -54.69821902 30.07190678 -48.87109375 24.19140625 C-48.2544133 23.56569733 -47.63773285 22.9399884 -47.00236511 22.2953186 C-45.70147954 20.97999209 -44.39782212 19.6674018 -43.09155273 18.35742188 C-41.11252766 16.36649983 -39.15295806 14.35767765 -37.19335938 12.34765625 C-35.92042689 11.06525769 -34.64637373 9.78397037 -33.37109375 8.50390625 C-32.79575394 7.90903412 -32.22041412 7.31416199 -31.62763977 6.70126343 C-22.91514871 -1.91783945 -11.53563277 -5.01446894 0 0 Z " fill="#CADBAE" transform="translate(200.2890625,333.01953125)"/>
<path d="M0 0 C5.44081333 3.10548706 9.60390542 8.53608045 11.5078125 14.453125 C13.45042232 22.86320411 12.00840468 29.02779079 7.7109375 36.4140625 C4.53302339 40.48576495 4.53302339 40.48576495 2.7109375 41.9765625 C2.0509375 41.9765625 1.3909375 41.9765625 0.7109375 41.9765625 C0.7109375 42.6365625 0.7109375 43.2965625 0.7109375 43.9765625 C0.0509375 43.9765625 -0.6090625 43.9765625 -1.2890625 43.9765625 C-1.2890625 44.6365625 -1.2890625 45.2965625 -1.2890625 45.9765625 C-3.6640625 48.6015625 -3.6640625 48.6015625 -6.2890625 50.9765625 C-6.9490625 50.9765625 -7.6090625 50.9765625 -8.2890625 50.9765625 C-8.2890625 51.6365625 -8.2890625 52.2965625 -8.2890625 52.9765625 C-9.89907849 54.74758009 -11.53917322 56.34775931 -13.2890625 57.9765625 C-14.0521875 58.71003906 -14.8153125 59.44351563 -15.6015625 60.19921875 C-23.90974175 67.9881368 -29.47443407 70.29933844 -40.88671875 70.375 C-47.87978207 69.55606492 -53.17036438 65.64006871 -57.4765625 60.2265625 C-61.09747043 53.7339 -62.29008628 47.24464889 -60.2890625 39.9765625 C-57.74880037 33.69454493 -54.17342535 29.25706598 -49.3984375 24.51953125 C-48.73499329 23.84988846 -48.07154907 23.18024567 -47.38800049 22.49031067 C-45.99104074 21.08628801 -44.58899017 19.68731387 -43.18212891 18.29321289 C-41.04315659 16.16813 -38.92931448 14.02010379 -36.81640625 11.86914062 C-35.44936853 10.50115177 -34.08092465 9.13456636 -32.7109375 7.76953125 C-32.08668884 7.13202438 -31.46244019 6.49451752 -30.8192749 5.83769226 C-22.40357013 -2.40428487 -10.99367196 -4.80131796 0 0 Z " fill="#CADCAE" transform="translate(138.2890625,292.0234375)"/>
</svg>
